<svg xmlns="http://www.w3.org/2000/svg" height="256px"
    viewBox="-128 -169.88854381999832 297.88854381999835 297.88854381999835">
    <path
        d="
    M -30.216701119973095 -128
    L 30.216701119973095 -128
    A 16 16 0 0 1 30.216701119973095 -96
    L -22.66252583997982 -96
    C -80.31688219212911 -96 -96 -80.31688219212911 -96 -22.66252583997982
    L -96 22.66252583997982
    C -96 80.31688219212911 -80.31688219212911 96 -22.66252583997982 96
    L 22.66252583997982 96
    C 80.31688219212911 96 96 80.31688219212911 96 22.66252583997982
    L 96 -30.216701119973095
    A 16 16 0 0 1 128 -30.216701119973095
    L 128 30.216701119973095
    C 128 107.08917625617215 107.08917625617215 128 30.216701119973095 128
    L -30.216701119973095 128
    C -107.08917625617215 128 -128 107.08917625617215 -128 30.216701119973095
    L -128 -30.216701119973095
    C -128 -107.08917625617215 -107.08917625617215 -128 -30.216701119973095 -128
    Z"
        fill="#4285f4"></path>
    <path
        d="
    M -15.108350559986548 -64
    L 15.476331908886934 -64
    C 35.83470538451391 -64 45.288453818757645 -67.91587081672716 59.683997757301825 -82.31141475527134
    L 89.3124892134272 -111.93990621139673
    A 41.888543819998326 41.888543819998326 0 1 1 111.93990621139673 -89.3124892134272
    L 128 -118.11145618000168
    A 9.888543819998326 9.888543819998326 0 1 0 118.11145618000168 -128
    A 9.888543819998326 9.888543819998326 0 0 0 128 -118.11145618000168
    L 111.93990621139673 -89.3124892134272
    L 76.51883989763698 -53.89142289966746
    C 59.308867623992995 -36.68145062602348 48.0068460310671 -32 23.668269833614843 -32
    L -7.554175279993274 -32
    C -26.772294064043038 -32 -32 -26.772294064043038 -32 -7.554175279993274
    L -32 7.554175279993274
    C -32 26.772294064043038 -26.772294064043038 32 -7.554175279993274 32
    L 25.88854381999832 32
    C 30.69307351601076 32 32 30.69307351601076 32 25.88854381999832
    L 32 22.11145618000168
    C 32 17.30692648398924 30.69307351601076 16 25.88854381999832 16
    L 4.668737080010089 16
    C -4.940322312014793 16 -7.554175279993274 13.386147032021519 -7.554175279993274 3.777087639996637
    L -7.554175279993274 -3.777087639996637
    C -7.554175279993274 -13.386147032021519 -4.940322312014793 -16 4.668737080010089 -16
    L 36.6687370800101 -16
    C 58.15524708041053 -16 64 -10.155247080410536 64 11.331262919989904
    L 64 15.108350559986548
    C 64 53.544588128086076 53.544588128086076 64 15.108350559986548 64
    L -15.108350559986548 64
    C -53.544588128086076 64 -64 53.544588128086076 -64 15.108350559986548
                L -64 -15.108350559986548
    C -64 -53.544588128086076 -53.544588128086076 -64 -15.108350559986548 -64
    Z
"
        fill="#fbbc05"></path>
</svg>